# xmcd
#
# Track frame offsets:
#	150
#	15485
#	31573
#	47752
#	62012
#	78938
#	94940
#	110492
#	124308
#	140048
#	153585
#	170124
#
# Disc length: 2492 seconds
#
# Revision: 1
# Processed by: cddbd v1.5.2PL0 Copyright (c) Steve Scherf et al.
# Submitted via: EasyCDDAExtractor 15.3.0.1
#
DISCID=9c09ba0c
DTITLE=Pandora - 30
DYEAR=2015
DGENRE=Latin
TTITLE0=La Otra Mujer
TTITLE1=El Dia Que Te Dije Si
TTITLE2=Demasiado Cielo
TTITLE3=El Cielo Es Mio
TTITLE4=Buena Suerte
TTITLE5=Lista De Pendientes
TTITLE6=La Que Mas Te Ha Querido
TTITLE7=Justo Ahora Que No Estas
TTITLE8=Lo Dijiste
TTITLE9=Maldita Sea (Featuring Carlos Rivera)
TTITLE10=Que Lastima Me Das (Featuring Samo)
TTITLE11=Quizas Sera
EXTD=
EXTT0=
EXTT1=
EXTT2=
EXTT3=
EXTT4=
EXTT5=
EXTT6=
EXTT7=
EXTT8=
EXTT9=
EXTT10=
EXTT11=
PLAYORDER=
